<svg width="512" height="512" viewBox="0 0 512 512" fill="none" xmlns="http://www.w3.org/2000/svg">
<path d="M265.2 331H211.6L170.4 158.2L128.4 331H76.4L1.2 65.4H60.4L104 237.4L140.8 65.4H199.2L239.6 237.4L282.8 65.4H339.6L265.2 331Z" fill="white"/>
<path d="M525.2 487H479.2L478 460.6C465.2 483 434.8 496.2 398.4 496.2C324.8 496.2 278 427.8 278 353.8C278 275.4 322.8 212.6 408.8 212.6C472 212.6 520.8 250.2 524.8 303.4H468.8C466 278.6 439.2 258.6 408.8 258.6C364.4 258.6 334.8 293 334.8 356.2C334.8 399.8 356.8 449.4 408.4 449.4C444.8 449.4 473.2 421.8 473.2 388.6H414.4V344.2H525.2V487Z" fill="#9EF3CA"/>
<rect x="283" y="65" width="136" height="39" fill="white"/>
<rect x="73" y="345" width="192" height="44" fill="white"/>
</svg>
